<?xml version="1.0" encoding="UTF-8" standalone="no"?>
<svg
   width="128"
   height="128"
   viewBox="0 0 128 128"
   fill="none"
   version="1.1"
   xmlns="http://www.w3.org/2000/svg">
  <rect
     width="128"
     height="128"
     rx="24"
     fill="#4f46e5"
     id="rect1" />
  <path
     d="M 64,32 C 46.327,32 32,46.327 32,64 32,81.673 46.327,96 64,96 81.673,96 96,81.673 96,64 96,46.327 81.673,32 64,32 Z m 0,8 c 13.255,0 24,10.745 24,24 0,13.255 -10.745,24 -24,24 C 50.745,88 40,77.255 40,64 40,50.745 50.745,40 64,40 Z"
     fill="#ffffff"
     id="path1" />
  <path
     d="m 64,48 c -8.837,0 -16,7.163 -16,16 0,8.837 7.163,16 16,16 8.837,0 16,-7.163 16,-16 0,-8.837 -7.163,-16 -16,-16 z m 0,8 c 4.418,0 8,3.582 8,8 0,4.418 -3.582,8 -8,8 -4.418,0 -8,-3.582 -8,-8 0,-4.418 3.582,-8 8,-8 z"
     fill="#ffffff"
     id="path2" />
  <path
     d="m 64,56 c -4.418,0 -8,3.582 -8,8 0,4.418 3.582,8 8,8 4.418,0 8,-3.582 8,-8 0,-4.418 -3.582,-8 -8,-8 z m 0,4 c 2.209,0 4,1.791 4,4 0,2.209 -1.791,4 -4,4 -2.209,0 -4,-1.791 -4,-4 0,-2.209 1.791,-4 4,-4 z"
     fill="#ffffff"
     id="path3" />
  <path
     d="M 88,40 H 76 v 8 h 12 z"
     fill="#ffffff"
     id="path4" />
  <path
     d="M 52,40 H 40 v 8 h 12 z"
     fill="#ffffff"
     id="path5" />
  <path
     d="M 88,80 H 76 v 8 h 12 z"
     fill="#ffffff"
     id="path6" />
  <path
     d="M 52,80 H 40 v 8 h 12 z"
     fill="#ffffff"
     id="path7" />
</svg>
